<svg id="Layer_1" data-name="Layer 1" xmlns="http://www.w3.org/2000/svg" xmlns:xlink="http://www.w3.org/1999/xlink" viewBox="0 0 1001 1001"><defs><style>.cls-1,.cls-3{fill:none;}.cls-2{clip-path:url(#clip-path);}.cls-3{stroke:#fff;stroke-miterlimit:10;}.cls-4{fill:#1d7480;}.cls-5{fill:#a5c8cc;}.cls-6{fill:#4a909a;}.cls-7{opacity:0.11;}.cls-8{clip-path:url(#clip-path-3);}.cls-9{fill:#fff;}</style><clipPath id="clip-path" transform="translate(0.5 0.5)"><rect class="cls-1" width="1000" height="1000"/></clipPath><clipPath id="clip-path-3" transform="translate(0.5 0.5)"><rect class="cls-1" x="498.26" y="209.29" width="369.12" height="581.41"/></clipPath></defs><title>logo</title><g class="cls-2"><g class="cls-2"><rect class="cls-3" x="0.5" y="0.5" width="1000" height="1000"/><path class="cls-4" d="M148.34,209.94S209.72,313.77,266,353c55.9,39,106.84,21.46,170.3,60.38,63.24,38.8,62.49,96,62.49,96s8.48-71.54,63-104.28S653.93,395.45,734,347s114-137,114-137,20.62,46.07,19.4,121.25S856.41,451.22,806.7,524c0,0-43.6,60-145.49,105.48C560.64,674.32,559.36,790.71,559.36,790.71H436.9s-1.21-86.09-61.83-134.59-154-87.29-212.18-177-14.55-269.16-14.55-269.16" transform="translate(0.5 0.5)"/><path class="cls-5" d="M498.89,508.77s-5.15-106.09,126.63-125.33c86.22-12.59,186.18-78.36,222.56-174.15l-34,121.25S787.45,352.36,763.2,390s-106.69,37.59-164.89,49.71-99.42,69.11-99.42,69.11c-26.67-42.43-111.55-75.17-111.55-75.17l-66.53-9.7s-82.6-47.29-125-88-47.29-126.56-47.29-126.56c106.7,173.39,159.88,165,240.05,179.5,0,0,48.62,15.6,73.37,43s35.77,48.5,37,77" transform="translate(0.5 0.5)"/><path class="cls-6" d="M148.49,209.29s-4.85,70.33,86.08,150.35,175.81,26.67,264.32,149.13c-2.22.24,29.1-87.3,194-111.54,121.37-17.85,155.2-187.94,155.2-187.94s-16.78,120.78-51.74,165.3c-39.2,49.92-78.16,51.34-152.56,65.07-79.61,14.69-144.89,69.11-144.89,69.11s-48.5-57-145.5-67.9-155.14-79-167.31-94.57c-35.17-44.86-37.59-137-37.59-137" transform="translate(0.5 0.5)"/><g class="cls-7"><g class="cls-8"><rect class="cls-9" x="498.76" y="209.79" width="369.12" height="581.41"/></g></g></g></g></svg>