<svg width="208" height="29" viewBox="0 0 208 29" fill="none" xmlns="http://www.w3.org/2000/svg">
<path d="M34.4486 23.3661H8.69091C7.79177 23.3661 7.06304 22.6406 7.06304 21.7455V10.2545C7.06304 9.35937 7.79177 8.63393 8.69091 8.63393H25.7061L20.8965 3.5H5.60559C2.51018 3.5 0 5.99888 0 9.08036V22.9196C0 26.0011 2.51018 28.5 5.60559 28.5H39.127V28.3605L34.4486 23.3661Z" fill="#005A96"/>
<path d="M60.2367 3.5H54.4032V21.5279C54.4032 22.144 53.9007 22.644 53.2814 22.644H51.583L34.2575 3.5H26.085L48.7111 28.5H53.8939H54.4032H54.6422H56.5067H59.1149C60.3545 28.5 61.3586 27.5011 61.3586 26.2679V4.61607C61.3586 4 60.856 3.5 60.2367 3.5Z" fill="#005A96"/>
<path d="M84.344 10.5382V12.331V12.9297H64.0259V17.7866H84.344V28.5H87.6651H90.9998V17.7866V12.9297V12.331V10.5382V10H87.6651H84.344V10.5382Z" fill="#005A96"/>
<path d="M90.9999 3.55008H84.3306V10.059H90.9999V3.55008Z" fill="#ED1C24"/>
<path d="M102.568 3.54688L105.125 10.7656L107.668 3.54688H110.361V13.5H108.304V10.7793L108.509 6.08301L105.822 13.5H104.414L101.734 6.08984L101.939 10.7793V13.5H99.8887V3.54688H102.568ZM117.895 11.4492H114.299L113.615 13.5H111.435L115.14 3.54688H117.04L120.766 13.5H118.585L117.895 11.4492ZM114.853 9.78809H117.341L116.09 6.0625L114.853 9.78809ZM128.367 5.20801H125.318V13.5H123.268V5.20801H120.26V3.54688H128.367V5.20801ZM131.724 13.5H129.673V3.54688H131.724V13.5ZM141.444 10.1846C141.367 11.2555 140.97 12.0986 140.255 12.7139C139.544 13.3291 138.605 13.6367 137.438 13.6367C136.162 13.6367 135.158 13.2083 134.424 12.3516C133.695 11.4902 133.33 10.3099 133.33 8.81055V8.20215C133.33 7.24512 133.499 6.40202 133.836 5.67285C134.173 4.94368 134.654 4.38542 135.278 3.99805C135.907 3.60612 136.636 3.41016 137.466 3.41016C138.614 3.41016 139.539 3.71777 140.241 4.33301C140.943 4.94824 141.349 5.81185 141.458 6.92383H139.407C139.357 6.28125 139.177 5.81641 138.867 5.5293C138.562 5.23763 138.095 5.0918 137.466 5.0918C136.782 5.0918 136.27 5.33789 135.928 5.83008C135.59 6.31771 135.417 7.0765 135.408 8.10645V8.8584C135.408 9.93392 135.57 10.7201 135.894 11.2168C136.222 11.7135 136.737 11.9619 137.438 11.9619C138.072 11.9619 138.544 11.8184 138.854 11.5312C139.168 11.2396 139.348 10.7907 139.394 10.1846H141.444ZM137.445 1.79688L138.443 0.819336H140.132V0.894531L138.067 2.81543H136.816L134.752 0.880859V0.819336H136.44L137.445 1.79688ZM150.885 13.5H148.834L144.842 6.95117V13.5H142.791V3.54688H144.842L148.841 10.1094V3.54688H150.885V13.5ZM154.856 13.5H152.806V3.54688H154.856V13.5ZM101.939 24.9932V28.5H99.8887V18.5469H103.771C104.519 18.5469 105.175 18.6836 105.74 18.957C106.31 19.2305 106.747 19.6201 107.053 20.126C107.358 20.6273 107.511 21.1992 107.511 21.8418C107.511 22.8171 107.176 23.5872 106.506 24.1523C105.84 24.7129 104.918 24.9932 103.737 24.9932H101.939ZM101.939 23.332H103.771C104.314 23.332 104.726 23.2044 105.009 22.9492C105.296 22.694 105.439 22.3294 105.439 21.8555C105.439 21.3678 105.296 20.9736 105.009 20.6729C104.722 20.3721 104.325 20.2171 103.819 20.208H101.939V23.332ZM117.102 23.749C117.102 24.7288 116.928 25.5879 116.582 26.3262C116.236 27.0645 115.739 27.6341 115.092 28.0352C114.449 28.4362 113.711 28.6367 112.877 28.6367C112.052 28.6367 111.316 28.4385 110.669 28.042C110.022 27.6455 109.521 27.0804 109.165 26.3467C108.81 25.6084 108.63 24.7607 108.625 23.8037V23.3115C108.625 22.3317 108.8 21.4704 109.151 20.7275C109.507 19.9801 110.006 19.4082 110.648 19.0117C111.296 18.6107 112.034 18.4102 112.863 18.4102C113.693 18.4102 114.429 18.6107 115.071 19.0117C115.718 19.4082 116.217 19.9801 116.568 20.7275C116.924 21.4704 117.102 22.3294 117.102 23.3047V23.749ZM115.023 23.2979C115.023 22.2542 114.837 21.4613 114.463 20.9189C114.089 20.3766 113.556 20.1055 112.863 20.1055C112.175 20.1055 111.644 20.3743 111.271 20.9121C110.897 21.4453 110.708 22.2292 110.703 23.2637V23.749C110.703 24.7653 110.89 25.5537 111.264 26.1143C111.637 26.6748 112.175 26.9551 112.877 26.9551C113.565 26.9551 114.094 26.6862 114.463 26.1484C114.832 25.6061 115.019 24.8177 115.023 23.7832V23.2979ZM118.592 28.5V18.5469H121.654C122.529 18.5469 123.311 18.7451 123.999 19.1416C124.692 19.5335 125.232 20.0941 125.619 20.8232C126.007 21.5479 126.2 22.3727 126.2 23.2979V23.7559C126.2 24.681 126.009 25.5036 125.626 26.2236C125.248 26.9437 124.712 27.502 124.02 27.8984C123.327 28.2949 122.545 28.4954 121.675 28.5H118.592ZM120.643 20.208V26.8525H121.634C122.436 26.8525 123.049 26.5905 123.473 26.0664C123.896 25.5423 124.113 24.7926 124.122 23.8174V23.291C124.122 22.2793 123.912 21.5137 123.493 20.9941C123.074 20.4701 122.461 20.208 121.654 20.208H120.643ZM133.166 26.4492H129.57L128.887 28.5H126.706L130.411 18.5469H132.312L136.037 28.5H133.856L133.166 26.4492ZM130.124 24.7881H132.612L131.361 21.0625L130.124 24.7881ZM144.63 25.1846C144.552 26.2555 144.156 27.0986 143.44 27.7139C142.729 28.3291 141.791 28.6367 140.624 28.6367C139.348 28.6367 138.343 28.2083 137.609 27.3516C136.88 26.4902 136.516 25.3099 136.516 23.8105V23.2021C136.516 22.2451 136.684 21.402 137.021 20.6729C137.359 19.9437 137.84 19.3854 138.464 18.998C139.093 18.6061 139.822 18.4102 140.651 18.4102C141.8 18.4102 142.725 18.7178 143.427 19.333C144.129 19.9482 144.534 20.8118 144.644 21.9238H142.593C142.543 21.2812 142.363 20.8164 142.053 20.5293C141.747 20.2376 141.28 20.0918 140.651 20.0918C139.968 20.0918 139.455 20.3379 139.113 20.8301C138.776 21.3177 138.603 22.0765 138.594 23.1064V23.8584C138.594 24.9339 138.756 25.7201 139.079 26.2168C139.407 26.7135 139.922 26.9619 140.624 26.9619C141.257 26.9619 141.729 26.8184 142.039 26.5312C142.354 26.2396 142.534 25.7907 142.579 25.1846H144.63ZM148.157 28.5H146.106V18.5469H148.157V28.5Z" fill="#999999"/>
</svg>
