<?xml version="1.0" standalone="no"?>
<!DOCTYPE svg PUBLIC "-//W3C//DTD SVG 20010904//EN"
 "http://www.w3.org/TR/2001/REC-SVG-20010904/DTD/svg10.dtd">
<svg version="1.0" xmlns="http://www.w3.org/2000/svg"
 width="847.000000pt" height="847.000000pt" viewBox="0 0 847.000000 847.000000"
 preserveAspectRatio="xMidYMid meet">

<g transform="translate(0.000000,847.000000) scale(0.100000,-0.100000)"
fill="#000000" stroke="none">
<path d="M7170 6650 c0 -16 -16 -112 -35 -213 -92 -486 -228 -901 -356 -1090
-106 -155 -259 -294 -411 -373 -163 -83 -316 -125 -763 -204 -325 -57 -512
-113 -749 -224 -183 -85 -433 -235 -563 -337 l-63 -49 -48 50 c-27 28 -47 52
-45 55 2 3 0 3 -3 0 -4 -2 -28 13 -53 33 -292 241 -660 387 -1126 447 -458 59
-900 292 -1252 658 -154 161 -229 282 -297 487 -37 110 -90 336 -101 430 -10
86 -34 261 -42 300 l-6 35 -8 -35 c-5 -19 -22 -116 -38 -215 -142 -847 -90
-1531 147 -1942 208 -363 576 -711 1140 -1080 557 -364 691 -461 800 -578 77
-82 175 -222 221 -314 85 -170 152 -402 173 -598 l12 -113 513 0 512 0 5 33
c3 17 10 74 16 125 32 258 153 564 302 767 75 102 232 253 328 317 97 63 104
67 340 182 381 184 699 405 955 662 268 270 521 751 600 1142 81 402 81 929 0
1326 -23 114 -90 346 -100 346 -3 0 -5 -13 -5 -30z"/>
<path d="M1710 5686 c0 -2 8 -10 18 -17 15 -13 16 -12 3 4 -13 16 -21 21 -21
13z"/>
<path d="M1950 5445 c13 -14 26 -25 28 -25 3 0 -5 11 -18 25 -13 14 -26 25
-28 25 -3 0 5 -11 18 -25z"/>
<path d="M2020 5386 c0 -2 8 -10 18 -17 15 -13 16 -12 3 4 -13 16 -21 21 -21
13z"/>
<path d="M3840 4566 c0 -2 8 -10 18 -17 15 -13 16 -12 3 4 -13 16 -21 21 -21
13z"/>
<path d="M3975 4440 c27 -27 51 -50 54 -50 3 0 -17 23 -44 50 -27 28 -51 50
-54 50 -3 0 17 -22 44 -50z"/>
</g>
</svg>
