<svg width="42" height="42" viewBox="0 0 42 42" fill="none" xmlns="http://www.w3.org/2000/svg">
<path d="M4.33329 20.9999C4.33329 16.1458 6.45829 11.7916 9.79163 8.74992L14.75 13.7083V1.20825H2.24996L6.83329 5.79158C2.74996 9.58325 0.166626 14.9791 0.166626 20.9999C0.166626 31.8124 8.39579 40.6874 18.9166 41.7291V37.5208C10.7083 36.4999 4.33329 29.4791 4.33329 20.9999ZM41.8333 20.9999C41.8333 10.1874 33.6041 1.31242 23.0833 0.270752V4.47909C31.2916 5.49992 37.6666 12.5208 37.6666 20.9999C37.6666 25.8541 35.5416 30.2082 32.2083 33.2499L27.25 28.2916V40.7916H39.75L35.1666 36.2083C39.25 32.4166 41.8333 27.0208 41.8333 20.9999Z" fill="#ED1C24"/>
</svg>
