<svg width="20" height="20" viewBox="0 0 20 20" fill="none" xmlns="http://www.w3.org/2000/svg">
<path fill-rule="evenodd" clip-rule="evenodd" d="M2.05764 8.30764C2.1157 8.24944 2.18467 8.20326 2.2606 8.17175C2.33653 8.14024 2.41793 8.12402 2.50014 8.12402C2.58235 8.12402 2.66375 8.14024 2.73968 8.17175C2.81561 8.20326 2.88458 8.24944 2.94264 8.30764L10.0001 15.3664L17.0576 8.30764C17.175 8.19028 17.3342 8.12435 17.5001 8.12435C17.6661 8.12435 17.8253 8.19028 17.9426 8.30764C18.06 8.425 18.1259 8.58417 18.1259 8.75014C18.1259 8.91611 18.06 9.07528 17.9426 9.19264L10.4426 16.6926C10.3846 16.7508 10.3156 16.797 10.2397 16.8285C10.1638 16.86 10.0824 16.8763 10.0001 16.8763C9.91793 16.8763 9.83653 16.86 9.7606 16.8285C9.68467 16.797 9.6157 16.7508 9.55764 16.6926L2.05764 9.19264C1.99944 9.13458 1.95326 9.06561 1.92175 8.98968C1.89024 8.91375 1.87402 8.83235 1.87402 8.75014C1.87402 8.66793 1.89024 8.58653 1.92175 8.5106C1.95326 8.43467 1.99944 8.3657 2.05764 8.30764V8.30764Z" fill="black"/>
<path fill-rule="evenodd" clip-rule="evenodd" d="M2.05764 3.30764C2.1157 3.24944 2.18467 3.20326 2.2606 3.17175C2.33653 3.14024 2.41793 3.12402 2.50014 3.12402C2.58235 3.12402 2.66375 3.14024 2.73968 3.17175C2.81561 3.20326 2.88458 3.24944 2.94264 3.30764L10.0001 10.3664L17.0576 3.30764C17.1158 3.24953 17.1847 3.20344 17.2607 3.17199C17.3366 3.14054 17.418 3.12435 17.5001 3.12435C17.5823 3.12435 17.6637 3.14054 17.7396 3.17199C17.8155 3.20344 17.8845 3.24953 17.9426 3.30764C18.0008 3.36575 18.0468 3.43474 18.0783 3.51066C18.1097 3.58659 18.1259 3.66796 18.1259 3.75014C18.1259 3.83232 18.1097 3.9137 18.0783 3.98962C18.0468 4.06554 18.0008 4.13453 17.9426 4.19264L10.4426 11.6926C10.3846 11.7508 10.3156 11.797 10.2397 11.8285C10.1638 11.86 10.0824 11.8763 10.0001 11.8763C9.91793 11.8763 9.83653 11.86 9.7606 11.8285C9.68467 11.797 9.6157 11.7508 9.55764 11.6926L2.05764 4.19264C1.99944 4.13458 1.95326 4.06561 1.92175 3.98968C1.89024 3.91375 1.87402 3.83235 1.87402 3.75014C1.87402 3.66793 1.89024 3.58653 1.92175 3.5106C1.95326 3.43467 1.99944 3.3657 2.05764 3.30764V3.30764Z" fill="black"/>
</svg>
