<svg width="42" height="42" viewBox="0 0 42 42" fill="none" xmlns="http://www.w3.org/2000/svg">
<path d="M39.8125 2.18749C41.2104 3.58541 41.9957 5.48138 41.9957 7.45832C41.9957 9.43526 41.2104 11.3312 39.8125 12.7292L14.8792 37.6667C14.3024 38.2437 13.585 38.6602 12.7979 38.875L2.13959 41.7812C1.87395 41.8533 1.59398 41.8539 1.32802 41.783C1.06205 41.7121 0.819539 41.5722 0.625014 41.3775C0.43049 41.1828 0.290859 40.9401 0.220252 40.6741C0.149645 40.408 0.150568 40.1281 0.222928 39.8625L3.12918 29.2042C3.34397 28.4171 3.76047 27.6997 4.33751 27.1229L29.2708 2.18749C30.6688 0.789597 32.5647 0.00427246 34.5417 0.00427246C36.5186 0.00427246 38.4146 0.789597 39.8125 2.18749V2.18749ZM27.25 8.62499L6.54584 29.3333C6.35375 29.5257 6.21516 29.7648 6.14376 30.0271L3.95626 38.0479L11.9771 35.8604C12.2383 35.7872 12.476 35.6471 12.6667 35.4542L33.375 14.75L27.25 8.62499ZM31.4792 4.39582L29.4583 6.41666L35.5833 12.5417L37.6042 10.5208C38.4029 9.7058 38.8477 8.60851 38.8419 7.46738C38.8362 6.32626 38.3803 5.23351 37.5734 4.4266C36.7665 3.61969 35.6737 3.16383 34.5326 3.15806C33.3915 3.1523 32.2942 3.59711 31.4792 4.39582V4.39582Z" fill="#58ACCD"/>
</svg>
