<svg width="26" height="24" viewBox="0 0 26 24" fill="none" xmlns="http://www.w3.org/2000/svg">
<path d="M20.5833 9H19.5V4H8.66663V20H23.8333V12C23.8333 10.34 22.3816 9 20.5833 9ZM10.8333 6H17.3333V9H10.8333V6ZM15.1666 17H10.8333V12H15.1666V17ZM17.3333 17C16.7375 17 16.25 16.55 16.25 16C16.25 15.45 16.7375 15 17.3333 15C17.9291 15 18.4166 15.45 18.4166 16C18.4166 16.55 17.9291 17 17.3333 17ZM17.3333 14C16.7375 14 16.25 13.55 16.25 13C16.25 12.45 16.7375 12 17.3333 12C17.9291 12 18.4166 12.45 18.4166 13C18.4166 13.55 17.9291 14 17.3333 14ZM20.5833 17C19.9875 17 19.5 16.55 19.5 16C19.5 15.45 19.9875 15 20.5833 15C21.1791 15 21.6666 15.45 21.6666 16C21.6666 16.55 21.1791 17 20.5833 17ZM20.5833 14C19.9875 14 19.5 13.55 19.5 13C19.5 12.45 19.9875 12 20.5833 12C21.1791 12 21.6666 12.45 21.6666 13C21.6666 13.55 21.1791 14 20.5833 14ZM4.87496 8C4.15666 8 3.46779 8.26339 2.95988 8.73223C2.45197 9.20107 2.16663 9.83696 2.16663 10.5V18.5C2.16663 19.163 2.45197 19.7989 2.95988 20.2678C3.46779 20.7366 4.15666 21 4.87496 21C5.59325 21 6.28213 20.7366 6.79004 20.2678C7.29795 19.7989 7.58329 19.163 7.58329 18.5V10.5C7.58329 10.1717 7.51324 9.8466 7.37713 9.54329C7.24103 9.23998 7.04153 8.96438 6.79004 8.73223C6.53855 8.50009 6.23998 8.31594 5.91139 8.1903C5.5828 8.06466 5.23062 8 4.87496 8V8Z" fill="#58ACCD"/>
</svg>
