<svg width="50" height="50" viewBox="0 0 50 50" fill="none" xmlns="http://www.w3.org/2000/svg">
<path d="M47.6508 22.8178L41.4062 17.2671V8.72783L34.2409 1.5625H14.8438V14.0625H7.8125C7.19112 14.0632 6.5954 14.3104 6.15602 14.7498C5.71664 15.1891 5.46947 15.7849 5.46875 16.4062V46.0938C5.46947 46.7151 5.71664 47.3109 6.15602 47.7502C6.5954 48.1896 7.19112 48.4368 7.8125 48.4375H48.4375V24.5696C48.4374 24.2387 48.3672 23.9114 48.2316 23.6095C48.096 23.3076 47.8981 23.0378 47.6508 22.8178V22.8178ZM14.8438 45.3125H8.59375V17.1875H14.8438V45.3125ZM32.0312 4.6875H32.9466L38.2812 10.0222V10.9375H32.0312V4.6875ZM17.9688 4.6875H28.9062V14.0625H38.2812V21.0938H17.9688V4.6875ZM45.3125 45.3125H17.9688V24.2188H41.4062V21.4481L45.3125 24.9205V45.3125Z" fill="#58ACCD"/>
<path d="M22.6562 33.5938H25.7812V36.7188H22.6562V33.5938Z" fill="#58ACCD"/>
<path d="M28.9062 33.5938H32.0312V36.7188H28.9062V33.5938Z" fill="#58ACCD"/>
<path d="M22.6562 39.8438H25.7812V42.9688H22.6562V39.8438Z" fill="#58ACCD"/>
<path d="M28.9062 39.8438H32.0312V42.9688H28.9062V39.8438Z" fill="#58ACCD"/>
<path d="M35.1562 33.5938H38.2812V36.7188H35.1562V33.5938Z" fill="#58ACCD"/>
<path d="M35.1562 39.8438H38.2812V42.9688H35.1562V39.8438Z" fill="#58ACCD"/>
<path d="M22.6562 27.3438H38.2812V30.4688H22.6562V27.3438Z" fill="#58ACCD"/>
</svg>
