<svg width="17" height="24" viewBox="0 0 17 24" fill="none" xmlns="http://www.w3.org/2000/svg">
<path d="M8.41699 0.166656C3.99414 0.166656 0.416992 3.7438 0.416992 8.16666C0.416992 14.1667 8.41699 23.0238 8.41699 23.0238C8.41699 23.0238 16.417 14.1667 16.417 8.16666C16.417 3.7438 12.8398 0.166656 8.41699 0.166656ZM8.41699 11.0238C7.65923 11.0238 6.93251 10.7228 6.39669 10.187C5.86087 9.65114 5.55985 8.92442 5.55985 8.16666C5.55985 7.40889 5.86087 6.68217 6.39669 6.14635C6.93251 5.61053 7.65923 5.30951 8.41699 5.30951C9.17475 5.30951 9.90148 5.61053 10.4373 6.14635C10.9731 6.68217 11.2741 7.40889 11.2741 8.16666C11.2741 8.92442 10.9731 9.65114 10.4373 10.187C9.90148 10.7228 9.17475 11.0238 8.41699 11.0238V11.0238Z" fill="white"/>
</svg>
