<svg width="16" height="12" viewBox="0 0 16 12" fill="none" xmlns="http://www.w3.org/2000/svg">
<path d="M15.2223 3.456V9.5625C15.2223 10.1851 14.9841 10.7841 14.5565 11.2367C14.1289 11.6892 13.5444 11.961 12.9228 11.9963L12.7848 12H2.65979C2.03719 12 1.43817 11.7618 0.985617 11.3342C0.533065 10.9067 0.261289 10.3221 0.22604 9.7005L0.22229 9.5625V3.456L7.46129 7.248C7.54182 7.29018 7.63138 7.31222 7.72229 7.31222C7.8132 7.31222 7.90276 7.29018 7.98329 7.248L15.2223 3.456ZM2.65979 1.77038e-08H12.7848C13.389 -7.2761e-05 13.9717 0.224247 14.4198 0.62945C14.868 1.03465 15.1497 1.59186 15.2103 2.193L7.72229 6.1155L0.23429 2.193C0.292433 1.61573 0.554578 1.07814 0.973603 0.676847C1.39263 0.275557 1.94105 0.0368902 2.52029 0.0037501L2.65979 1.77038e-08H12.7848H2.65979Z" fill="#58ACCD"/>
</svg>
