<svg width="53" height="53" viewBox="0 0 53 53" fill="none" xmlns="http://www.w3.org/2000/svg">
<path d="M50.7604 15.2837L37.5022 2.02544C36.9037 1.42698 36.2017 1.02417 35.3961 0.817005C34.5904 0.609845 33.7848 0.609845 32.9792 0.817005C32.1736 1.02417 31.4715 1.42698 30.8731 2.02544L2.14685 30.7517C1.22613 31.6724 0.765779 32.7772 0.765779 34.0662C0.765779 35.3552 1.22613 36.4601 2.14685 37.3808L15.4051 50.639C16.3258 51.5597 17.4307 52.0201 18.7197 52.0201C20.0087 52.0201 21.1135 51.5597 22.0342 50.639L50.7604 21.9128C51.3589 21.3144 51.7617 20.6123 51.9689 19.8067C52.176 19.0011 52.176 18.1954 51.9689 17.3898C51.7617 16.5842 51.3589 15.8822 50.7604 15.2837ZM19.8245 48.4293C19.5253 48.7286 19.157 48.8782 18.7197 48.8782C18.2823 48.8782 17.914 48.7286 17.6148 48.4293L4.35656 35.1711C4.05732 34.8718 3.90771 34.5036 3.90771 34.0662C3.90771 33.6289 4.05732 33.2606 4.35656 32.9614L33.0828 4.23515C33.382 3.93592 33.7503 3.7863 34.1876 3.7863C34.625 3.7863 34.9932 3.93592 35.2925 4.23515L48.5507 17.4934C48.85 17.7926 48.9996 18.1609 48.9996 18.5983C48.9996 19.0356 48.85 19.4039 48.5507 19.7031L19.8245 48.4293ZM16.5272 36.2932C15.9172 35.6832 15.1749 35.3782 14.3002 35.3782C13.4256 35.3782 12.689 35.6775 12.0905 36.2759C11.6992 36.6672 11.4288 37.1333 11.2792 37.6743C11.1295 38.2152 11.1295 38.7561 11.2792 39.297C11.4288 39.8379 11.6992 40.304 12.0905 40.6953C12.4818 41.0866 12.9479 41.3571 13.4889 41.5067C14.0298 41.6563 14.5707 41.6563 15.1116 41.5067C15.6525 41.3571 16.1187 41.0866 16.51 40.6953C17.1084 40.0969 17.4134 39.3661 17.4249 38.5029C17.4364 37.6397 17.1372 36.9032 16.5272 36.2932ZM43.0265 14.1788L38.607 9.75942C38.3078 9.46019 37.9395 9.31057 37.5022 9.31057C37.0648 9.31057 36.6966 9.46019 36.3973 9.75942C36.0981 10.0587 35.9485 10.4269 35.9485 10.8643C35.9485 11.3016 36.0981 11.6699 36.3973 11.9691L40.8167 16.3885C41.116 16.6878 41.4843 16.8374 41.9216 16.8374C42.3589 16.8374 42.7272 16.6878 43.0265 16.3885C43.3257 16.0893 43.4753 15.721 43.4753 15.2837C43.4753 14.8464 43.3257 14.4781 43.0265 14.1788Z" fill="#58ACCD"/>
</svg>
