<svg width="50" height="50" viewBox="0 0 50 50" fill="none" xmlns="http://www.w3.org/2000/svg">
<path d="M32.3646 5.8502C30.7896 4.2752 28.0479 4.2752 26.4729 5.8502L5.85 26.4731C5.06938 27.2547 4.63092 28.3143 4.63092 29.4189C4.63092 30.5236 5.06938 31.5831 5.85 32.3648L17.6354 44.1502C18.4229 44.9377 19.4688 45.371 20.5813 45.371C21.6938 45.371 22.7396 44.9377 23.5271 44.1502L44.15 23.5273C44.9375 22.7398 45.3708 21.6939 45.3708 20.5814C45.3708 19.4689 44.9375 18.4231 44.15 17.6356L32.3646 5.8502V5.8502ZM20.5813 41.2044V43.2877V41.2044L8.79584 29.4189L29.4188 8.79603L41.2042 20.5814L20.5813 41.2044V41.2044Z" fill="#58ACCD"/>
<path d="M18.75 33.3332C19.9006 33.3332 20.8333 32.4004 20.8333 31.2498C20.8333 30.0992 19.9006 29.1665 18.75 29.1665C17.5994 29.1665 16.6667 30.0992 16.6667 31.2498C16.6667 32.4004 17.5994 33.3332 18.75 33.3332Z" fill="#58ACCD"/>
<path d="M32.7229 45.2227L29.7771 42.2769L42.2771 29.7769L45.2229 32.7248L32.7229 45.2227ZM17.2771 4.77686L20.2229 7.72269L7.72292 20.2227L4.77708 17.2748L17.2771 4.77686Z" fill="#58ACCD"/>
</svg>
