<svg width="1967" height="1200" viewBox="0 0 1967 1200" fill="none" xmlns="http://www.w3.org/2000/svg">
<rect width="1967" height="1200" fill="white"/>
<ellipse cx="1430.5" cy="1065.5" rx="380.5" ry="27.5" fill="#D8D8D8"/>
<ellipse cx="1423.5" cy="1056.5" rx="203.5" ry="18.5" fill="#C9C9C9"/>
<path fill-rule="evenodd" clip-rule="evenodd" d="M792.508 -0.00109863H1967V167.511C1576.1 774.928 1369.05 810.47 1229.18 834.48C1146.14 848.735 1086.78 858.925 1026.68 982.31C983.147 1071.68 940.343 1143.09 898.095 1200H80.9247C-28.5513 912.655 -17.8587 465.547 247.053 201.154C348.78 99.6275 554.405 37.1407 792.508 -0.00109863Z" fill="#60E4E9"/>
<path fill-rule="evenodd" clip-rule="evenodd" d="M1967 0H0V1200H282.802C478.77 1125.24 675.661 987.292 849.908 735.19C921.668 647.298 1027.11 632.995 1158.05 615.235C1371.71 586.254 1653.24 548.067 1967 165.866V0Z" fill="#1BD0D7"/>
<path fill-rule="evenodd" clip-rule="evenodd" d="M1274 1048.61L1317.56 906H1349.71L1293.61 1048.61H1274Z" fill="#E5A58A"/>
<path fill-rule="evenodd" clip-rule="evenodd" d="M1285.23 1049L1335.3 906.385L1349.8 906.385L1293.69 1049H1285.23Z" fill="#D48969"/>
<path d="M1590 725.5C1590 836.509 1517.69 926.5 1428.5 926.5C1339.31 926.5 1267 836.509 1267 725.5C1267 614.491 1339.31 571 1428.5 571C1517.69 571 1590 614.491 1590 725.5Z" fill="#FBEB8C"/>
<path fill-rule="evenodd" clip-rule="evenodd" d="M1575.8 1049.61L1532.24 907L1500.08 907L1556.18 1049.61H1575.8Z" fill="#E5A58A"/>
<path fill-rule="evenodd" clip-rule="evenodd" d="M1564.56 1050L1514.49 907.385L1500 907.385L1556.1 1050H1564.56Z" fill="#D48969"/>
<ellipse cx="1428" cy="771" rx="151" ry="161" fill="#FED964"/>
<path fill-rule="evenodd" clip-rule="evenodd" d="M1576 848.07C1545.02 892.348 1488.32 922 1423.5 922C1367.49 922 1317.53 899.854 1285 865.261V839.401C1327.52 831.444 1374.96 827 1425 827C1479.4 827 1530.73 832.252 1576 841.559V848.07Z" fill="#FC9626"/>
<path d="M1590 778C1590 856.424 1515.9 920 1424.5 920C1333.1 920 1259 856.424 1259 778" stroke="#FFAE46" stroke-width="40" stroke-linecap="round" stroke-linejoin="round"/>
<path fill-rule="evenodd" clip-rule="evenodd" d="M1425.07 812.544C1425.84 812.364 1426.62 812.182 1427.41 812C1549.24 843.273 1542.41 864.284 1518.65 910.216C1513.51 920.166 1508.8 929.928 1504.27 939.306L1504.27 939.307C1494.17 960.214 1485 979.214 1474.01 994.14L1483.02 911.242C1484.95 893.495 1471.04 878 1453.19 878H1397.36C1378.89 878 1364.8 894.542 1367.75 912.783L1381.08 995.367C1367.78 980.096 1357.43 959.154 1345.86 935.754C1341.35 926.637 1336.66 917.148 1331.54 907.475C1307.89 862.825 1301.1 842.4 1422.36 812C1423.27 812.206 1424.17 812.41 1425.07 812.615V812.544Z" fill="#33A1C2"/>
<path fill-rule="evenodd" clip-rule="evenodd" d="M1476.71 969L1482.88 912.242C1484.81 894.495 1470.91 879 1453.06 879H1397.23C1378.75 879 1364.67 895.542 1367.61 913.783L1376.53 969H1371.93L1359.23 905.921C1355.49 887.347 1369.69 870 1388.64 870H1461.66C1480.17 870 1494.27 886.601 1491.26 904.868L1480.72 969H1476.71Z" fill="#1D8BAC"/>
<rect x="1360.63" y="970.55" width="18" height="32.0503" transform="rotate(-14.6429 1360.63 970.55)" fill="#474E56"/>
<path fill-rule="evenodd" clip-rule="evenodd" d="M1374.96 1000.23C1375.32 997.892 1375.26 995.511 1374.72 993.151C1371.84 980.572 1356.47 973.355 1340.39 977.032C1324.3 980.709 1313.59 993.887 1316.47 1006.47C1317.14 1009.4 1318.49 1012.04 1320.37 1014.33L1374.96 1000.23Z" fill="#474E56"/>
<rect width="18" height="32.0503" transform="matrix(-0.96752 -0.252794 -0.252794 0.96752 1493.15 970.55)" fill="#474E56"/>
<path fill-rule="evenodd" clip-rule="evenodd" d="M1478.82 1000.23C1478.46 997.892 1478.52 995.511 1479.06 993.151C1481.93 980.572 1497.31 973.355 1513.39 977.032C1529.48 980.709 1540.19 993.887 1537.31 1006.47C1536.64 1009.4 1535.29 1012.04 1533.41 1014.33L1478.82 1000.23Z" fill="#474E56"/>
<rect x="1318.37" y="1010.81" width="69.0654" height="3.7845" transform="rotate(-14.6429 1318.37 1010.81)" fill="black"/>
<rect width="69.0654" height="3.7845" transform="matrix(-0.96752 -0.252794 -0.252794 0.96752 1535.41 1010.46)" fill="black"/>
<rect width="18.1216" height="6.30395" transform="matrix(-0.96752 -0.252794 -0.252794 0.96752 1493.76 968.143)" fill="black"/>
<rect x="1359.63" y="966.581" width="18.1216" height="6.30395" transform="rotate(-14.6429 1359.63 966.581)" fill="black"/>
<path d="M1479.5 798C1479.5 831.137 1465.97 842 1424 842C1382.03 842 1371 831.137 1371 798C1371 764.863 1382.03 722 1424 722C1465.97 722 1479.5 764.863 1479.5 798Z" fill="white"/>
<path fill-rule="evenodd" clip-rule="evenodd" d="M1370.15 827.213L1375.94 825.226C1388.81 834.057 1406.02 839.5 1425 839.5C1443.84 839.5 1460.93 834.138 1473.78 825.424L1479.63 827.377L1479.54 827.448C1465.49 838.029 1446.2 844.5 1425 844.5C1403.8 844.5 1384.51 838.029 1370.46 827.448C1370.36 827.37 1370.26 827.292 1370.15 827.213Z" fill="#2590B2"/>
<path fill-rule="evenodd" clip-rule="evenodd" d="M1371.8 812C1371.38 809.23 1371.13 806.234 1371 803H1479.3C1479.14 806.234 1478.83 809.23 1478.35 812H1371.8Z" fill="#ECECEC"/>
<path d="M1515 781C1515 793.979 1480.11 790 1423.5 790C1366.89 790 1329 793.979 1329 781C1329 768.021 1366.89 706 1423.5 706C1480.11 706 1506.5 736.5 1515 781Z" fill="white"/>
<rect x="1073" y="790" width="708" height="13" fill="#E6A98D"/>
<rect x="1107" y="778" width="241" height="12" fill="#908E8E"/>
<path d="M1053 646H1246.02L1293 778H1107.6L1053 646Z" fill="#767676"/>
<path d="M1626.26 812.366L1718.48 1067.67L1701.76 1067.67L1583 812.366L1626.26 812.366Z" fill="#E5A58A"/>
<path d="M1602.5 812.366L1708.5 1067.67L1701.76 1067.67L1583 812.366L1602.5 812.366Z" fill="#D48969"/>
<path fill-rule="evenodd" clip-rule="evenodd" d="M1282.27 747.216C1245.5 750.578 1200.57 742.769 1155.15 722.814C1115.3 705.308 1081.36 681.215 1056.72 654.962L1053 646H1246.13L1282.27 747.216Z" fill="#838383"/>
<rect x="1698" y="757" width="105" height="33" fill="#00A9AC"/>
<rect x="1698" y="784" width="105" height="6" fill="#018E90"/>
<rect x="1680" y="729" width="111" height="28" fill="#FEDD7E"/>
<rect x="1693" y="708" width="103" height="21" fill="#FF804F"/>
<rect x="1693" y="722" width="103" height="7" fill="#FC643D"/>
<rect x="1680" y="751" width="111" height="6" fill="#F5C83B"/>
<rect x="1651.93" y="676" width="6" height="92" transform="rotate(9.34239 1651.93 676)" fill="#237489"/>
<rect x="1379.31" y="736.816" width="6" height="61.3145" transform="rotate(-42.2009 1379.31 736.816)" fill="#FFC54C"/>
<ellipse cx="1417.5" cy="774" rx="17.5" ry="17" fill="#F8A37A"/>
<rect width="6" height="92" transform="matrix(-0.940994 0.338422 0.338422 0.940994 1608.68 684.576)" fill="#FFC54C"/>
<rect width="6" height="92" transform="matrix(-0.992139 0.12514 0.12514 0.992139 1626.95 697)" fill="#6ACBE6"/>
<rect x="1618" y="729" width="40" height="61" fill="#EB5639"/>
<rect x="1643" y="729" width="14" height="61" fill="#DA4022"/>
<rect x="1557" y="803" width="87" height="17" fill="#B97665"/>
<path d="M1586.5 820H1629L1633.5 833H1592.5L1586.5 820Z" fill="#B97665" fill-opacity="0.5"/>
<path d="M1227.53 812.366L1135.32 1067.67L1152.03 1067.67L1270.8 812.366L1227.53 812.366Z" fill="#E5A58A"/>
<path d="M1251.3 812.366L1145.3 1067.67L1152.03 1067.67L1270.8 812.366L1251.3 812.366Z" fill="#D48969"/>
<path d="M1267.3 820H1224.8L1220.3 833H1261.3L1267.3 820Z" fill="#B97665" fill-opacity="0.5"/>
<rect x="1207" y="803" width="87" height="17" fill="#B97665"/>
<path d="M1358 767L1425 779L1493 767V785H1358V767Z" fill="#D1D1D1"/>
<path d="M1358 778L1425 782.667L1493 778V785H1358V778Z" fill="#BFBFBF"/>
<path d="M1405.24 671.555C1405.11 661.898 1412.9 654 1422.56 654C1432.17 654 1439.94 661.83 1439.88 671.443L1439.61 708.855C1439.55 717.478 1433.01 724.678 1424.44 725.574C1414.54 726.608 1405.88 718.919 1405.75 708.965L1405.24 671.555Z" fill="#F6A178"/>
<rect x="1354" y="785" width="142" height="6" fill="#FC643D"/>
<path fill-rule="evenodd" clip-rule="evenodd" d="M1405.61 708.084C1407.62 715.526 1414.42 721 1422.5 721C1430.72 721 1437.62 715.327 1439.5 707.681C1441.14 708.029 1442.76 708.428 1444.35 708.874C1441.94 718.706 1433.07 726 1422.5 726C1412.11 726 1403.36 718.951 1400.77 709.373C1402.36 708.897 1403.98 708.466 1405.61 708.084Z" fill="#D8D8D8"/>
<ellipse cx="1322.6" cy="629.208" rx="30" ry="23" transform="rotate(43.4186 1322.6 629.208)" fill="#F38B58"/>
<path fill-rule="evenodd" clip-rule="evenodd" d="M1405.66 702.498L1405.54 693.628C1408.69 690.719 1414.71 688.482 1421.73 687.961C1429.59 687.379 1436.52 689.11 1439.73 692.087L1439.67 700.07C1436.65 703.168 1430.41 705.586 1423.08 706.129C1415.66 706.679 1409.08 705.169 1405.66 702.498Z" fill="#ED8A5B"/>
<ellipse cx="1495.14" cy="596.34" rx="36.9468" ry="23" transform="rotate(-56.2691 1495.14 596.34)" fill="#F38B58"/>
<path d="M1499.13 571.515C1525.74 633.768 1472.63 683.57 1428.65 700.469C1364.17 701.385 1309.46 660.901 1315.7 606.446C1303.98 544.873 1335.53 487.138 1386.18 477.492C1436.84 467.846 1487.4 509.942 1499.13 571.515Z" fill="#F8A37A"/>
<circle cx="1368.63" cy="623.51" r="20" transform="rotate(-32.6258 1368.63 623.51)" fill="white"/>
<path fill-rule="evenodd" clip-rule="evenodd" d="M1363.7 642.893C1361.68 641.403 1359.86 639.488 1358.39 637.19C1352.73 628.352 1354.36 617.205 1362.04 612.292C1369.71 607.378 1380.52 610.56 1386.18 619.398C1387.24 621.055 1388.04 622.793 1388.6 624.557C1388.27 630.772 1385.05 636.742 1379.41 640.354C1374.56 643.46 1368.87 644.208 1363.7 642.893Z" fill="black"/>
<circle cx="1375.64" cy="634.459" r="5" transform="rotate(-32.6258 1375.64 634.459)" fill="white"/>
<circle r="20" transform="matrix(-0.994509 -0.104654 -0.104654 0.994509 1456.63 607.51)" fill="white"/>
<path fill-rule="evenodd" clip-rule="evenodd" d="M1469.72 622.631C1470.86 620.392 1471.63 617.865 1471.91 615.151C1473.01 604.715 1466.55 595.482 1457.49 594.529C1448.43 593.575 1440.19 601.262 1439.09 611.698C1438.89 613.655 1438.95 615.569 1439.24 617.395C1442.32 622.803 1447.87 626.699 1454.53 627.4C1460.26 628.003 1465.68 626.124 1469.72 622.631Z" fill="black"/>
<circle r="5" transform="matrix(-0.994509 -0.104654 -0.104654 0.994509 1455.27 620.438)" fill="white"/>
<path d="M1435 567.624C1435 564.327 1437.42 561.529 1440.68 561.051L1452.6 559.306C1454.52 559.025 1456.48 559.025 1458.4 559.306L1470.32 561.051C1473.58 561.529 1476 564.327 1476 567.624C1476 571.866 1472.08 575.022 1467.93 574.112L1458.58 572.058C1456.55 571.613 1454.45 571.613 1452.42 572.058L1443.07 574.112C1438.92 575.022 1435 571.866 1435 567.624Z" fill="#772C15"/>
<rect x="1335" y="592.413" width="36.4357" height="11" rx="5.5" transform="rotate(-33.4367 1335 592.413)" fill="#772C15"/>
<path fill-rule="evenodd" clip-rule="evenodd" d="M1335.5 453.586C1308.05 465.975 1291.19 492.18 1295.5 522C1296.33 523.471 1297.27 524.915 1298.31 526.328C1297.39 526.307 1296.48 526.426 1295.61 526.694C1285.33 529.838 1283.09 552.295 1290.61 576.852C1298.12 601.41 1312.6 619.707 1322.88 616.563C1322.67 606.786 1324.86 600.534 1326.89 594.726C1329.67 586.775 1332.16 579.656 1327.82 565.465C1325.27 557.127 1321.92 549.62 1318.21 543.462C1348.22 561.514 1395.07 568.099 1413.1 551.853C1410.93 550.852 1408.81 549.645 1406.78 548.229C1398.58 542.526 1393.11 534.403 1390.71 525.6C1397.13 532.551 1406.97 537 1418 537C1425.64 537 1432.7 534.868 1438.46 531.251C1426.9 526.643 1418.72 516.712 1418.04 505.057C1422.11 510.514 1427.78 514.919 1434.7 517.476C1450.78 523.424 1468.29 517.421 1477.08 503.977C1493.63 496.949 1507.22 481.337 1512.16 461.057C1513.4 455.97 1514.02 450.894 1514.08 445.924C1501.26 463.672 1480.07 473.569 1458.55 470.393C1473.26 459.702 1483 441.126 1483 420C1483 414.764 1482.4 409.685 1481.28 404.844C1475.1 420.016 1463.34 432.028 1448.73 437.956C1428.11 447.629 1392.93 454 1353 454C1347.05 454 1341.21 453.859 1335.5 453.586Z" fill="#772D14"/>
<path d="M1471.81 534.61C1479.74 561.114 1489.45 557.584 1500.99 579.194C1501.33 566.5 1504 556.5 1501.33 530.912C1501.33 521 1480.54 484.85 1472.6 487.225C1464.65 489.601 1463.89 508.107 1471.81 534.61Z" fill="#772D14"/>
<ellipse cx="1380.5" cy="472" rx="61.5" ry="27" fill="#772D14"/>
<path fill-rule="evenodd" clip-rule="evenodd" d="M1392 661.051C1396.38 661.551 1400.99 661.656 1405.75 661.311C1424.28 659.968 1439.8 652.157 1446.54 642C1448.24 655.149 1446.24 669.581 1439.5 675.474C1426.97 685.566 1406.37 682.65 1396.49 670.391C1394.12 667.443 1392.67 664.286 1392 661.051Z" fill="#A4312A"/>
<path fill-rule="evenodd" clip-rule="evenodd" d="M1392 661.051C1392.18 661.934 1392.42 662.811 1392.72 663.679C1398.91 667.275 1410.11 668.089 1422.16 665.225C1433.59 662.508 1442.86 657.174 1447.11 651.515C1447.15 648.36 1446.95 645.143 1446.54 642C1439.8 652.157 1424.28 659.968 1405.75 661.311C1405.45 661.333 1405.14 661.352 1404.84 661.371C1400.41 661.641 1396.1 661.52 1392 661.051Z" fill="white"/>
<path fill-rule="evenodd" clip-rule="evenodd" d="M1444.16 668.523C1442.98 671.388 1441.43 673.783 1439.5 675.474C1432.03 681.489 1421.69 682.883 1412.47 680.432C1414.71 675.922 1421.07 671.502 1429.25 669.312C1434.73 667.843 1440.01 667.649 1444.16 668.523Z" fill="#F27272"/>
<path fill-rule="evenodd" clip-rule="evenodd" d="M1480.22 509.662L1477.5 491.5L1443 477.5L1346.5 511.5L1306.5 543L1323 583.5L1325.39 583.988C1325.42 580.195 1325.03 575.859 1324.03 570.693C1322.14 560.897 1319.39 552.002 1316.16 544.64C1344.83 567.567 1391.35 578.45 1410.76 560.975C1408.66 559.668 1406.63 558.127 1404.7 556.351C1396.93 549.197 1392.09 539.444 1390.39 529.122C1396.27 537.59 1405.79 543.412 1416.87 544.186C1424.54 544.722 1431.81 542.759 1437.88 538.989C1426.64 532.864 1419.23 520.835 1419.49 507.344C1423.13 513.923 1428.47 519.402 1435.21 522.837C1450.88 530.826 1468.95 525.13 1478.85 510.24C1479.31 510.054 1479.77 509.862 1480.22 509.662Z" fill="#772D14" fill-opacity="0.3"/>
</svg>
