<svg width="20" height="20" viewBox="0 0 20 20" fill="none" xmlns="http://www.w3.org/2000/svg">
<path d="M11.6866 11.6793C10.4606 12.9493 8.97728 13.9298 7.3407 14.5519L5.12665 12.7528C5.06101 12.7066 4.98319 12.6819 4.90349 12.6819C4.82378 12.6819 4.74596 12.7066 4.68032 12.7528L0.569351 15.4575C0.413283 15.5533 0.281169 15.6848 0.183446 15.8417C0.0857235 15.9987 0.0250689 16.1766 0.00627234 16.3616C-0.0125243 16.5465 0.0110531 16.7334 0.0751414 16.9075C0.13923 17.0816 0.242074 17.238 0.37555 17.3645L2.30183 19.3075C2.57769 19.5859 2.91675 19.7902 3.28873 19.9021C3.66072 20.0141 4.05406 20.0303 4.43366 19.9492C8.22032 19.1506 11.7106 17.2803 14.5055 14.5519C17.2384 11.7964 19.1296 8.29032 19.9496 4.4589C20.0306 4.07728 20.0137 3.68075 19.9005 3.30776C19.7874 2.93477 19.5817 2.59795 19.3036 2.32996L17.3069 0.362933C17.1833 0.23327 17.0326 0.133832 16.8661 0.072064C16.6995 0.0102964 16.5215 -0.0122 16.3452 0.00625935C16.169 0.0247187 15.9991 0.0836555 15.8483 0.178657C15.6975 0.273658 15.5698 0.402261 15.4745 0.554838L12.7378 4.69879C12.6906 4.76386 12.6651 4.84269 12.6651 4.92367C12.6651 5.00465 12.6906 5.08349 12.7378 5.14856L14.5408 7.36147C13.915 8.99922 12.94 10.4742 11.6866 11.6793V11.6793Z" fill="white"/>
</svg>
