<svg width="31" height="31" viewBox="0 0 31 31" fill="none" xmlns="http://www.w3.org/2000/svg">
<path d="M28.8147 5.12566L24.8215 1.13616C24.334 0.648716 23.6816 0.375 22.9917 0.375C22.3018 0.375 21.6494 0.644966 21.1619 1.13616L16.8612 5.42937C16.3738 5.91681 16.1001 6.57298 16.1001 7.26289C16.1001 7.95655 16.37 8.60522 16.8612 9.09641L20.2208 12.4597C19.4555 14.243 18.3558 15.8632 16.9812 17.2329C15.6051 18.6165 13.9966 19.7076 12.2118 20.48L8.85223 17.1167C8.3648 16.6292 7.71238 16.3555 7.02246 16.3555C6.68217 16.3542 6.34504 16.4209 6.03085 16.5516C5.71665 16.6823 5.4317 16.8744 5.19269 17.1167L0.88823 21.4099C0.400791 21.8973 0.127075 22.5535 0.127075 23.2434C0.127075 23.9371 0.397042 24.5857 0.88823 25.0769L4.87773 29.0664C5.71013 29.8988 6.85748 30.375 8.03484 30.375C8.27856 30.375 8.51478 30.3563 8.75475 30.315C13.7191 29.4976 18.646 26.8542 22.6243 22.8797C26.5988 18.8977 29.2384 13.9708 30.0633 9.00267C30.2996 7.59285 29.8271 6.14178 28.8147 5.12566V5.12566ZM27.4049 8.55648C26.6738 12.9772 24.2966 17.3866 20.7157 20.9674C17.1349 24.5482 12.7292 26.9254 8.30855 27.6566C7.75362 27.7503 7.18369 27.5629 6.77874 27.1617L2.86048 23.2434L7.01496 19.0852L11.5069 23.5846L11.5406 23.6183L12.3505 23.3184C14.8062 22.4155 17.0362 20.9895 18.8859 19.1391C20.7357 17.2887 22.161 15.0582 23.063 12.6022L23.3629 11.7923L18.8335 7.26664L22.988 3.10841L26.9062 7.02667C27.3112 7.43162 27.4987 8.00155 27.4049 8.55648Z" fill="#58ACCD"/>
</svg>
