<svg width="50" height="50" viewBox="0 0 50 50" fill="none" xmlns="http://www.w3.org/2000/svg">
<g clip-path="url(#clip0)">
<path d="M49.305 41.5769L42.2556 48.5698C41.215 49.637 39.8357 49.9985 38.4924 50.0001C32.5519 49.8222 26.9368 46.9041 22.3265 43.9078C14.7589 38.4024 7.81535 31.576 3.45743 23.3264C1.78601 19.8672 -0.175153 15.4534 0.0122217 11.5922C0.02893 10.1397 0.420347 8.71412 1.44331 7.77787L8.49272 0.731991C9.95656 -0.513134 11.3722 -0.0826338 12.3089 1.3677L17.9802 12.1219C18.5771 13.396 18.2347 14.7611 17.3441 15.6714L14.747 18.2673C14.5866 18.4869 14.4846 18.7369 14.482 19.009C15.4779 22.8641 18.495 26.4173 21.1603 28.8626C23.8256 31.3079 26.6906 34.6208 30.4094 35.4051C30.8691 35.5333 31.4321 35.5784 31.761 35.2727L34.7822 32.2C35.8237 31.4107 37.3275 31.0248 38.4393 31.6703H38.4923L48.7219 37.7096C50.2236 38.6509 50.3802 40.4701 49.305 41.5769V41.5769Z" fill="white"/>
</g>
<defs>
<clipPath id="clip0">
<rect width="50" height="50" fill="white"/>
</clipPath>
</defs>
</svg>
