<svg width="21" height="26" viewBox="0 0 21 26" fill="none" xmlns="http://www.w3.org/2000/svg">
<path d="M5.51691 14.5454H12.7896V16.3636H5.51691V14.5454Z" fill="white"/>
<path d="M5.51691 9.99951H16.426V11.8177H5.51691V9.99951Z" fill="white"/>
<path d="M5.51691 19.0908H10.0624V20.909H5.51691V19.0908Z" fill="white"/>
<path d="M19.1533 2.72727H16.426V1.81818C16.426 1.33597 16.2344 0.873508 15.8934 0.532533C15.5525 0.191558 15.09 0 14.6078 0H7.33507C6.85286 0 6.3904 0.191558 6.04942 0.532533C5.70845 0.873508 5.51689 1.33597 5.51689 1.81818V2.72727H2.78962C2.30741 2.72727 1.84494 2.91883 1.50397 3.25981C1.16299 3.60078 0.971436 4.06324 0.971436 4.54545V23.6364C0.971436 24.1186 1.16299 24.581 1.50397 24.922C1.84494 25.263 2.30741 25.4545 2.78962 25.4545H19.1533C19.6355 25.4545 20.0979 25.263 20.4389 24.922C20.7799 24.581 20.9714 24.1186 20.9714 23.6364V4.54545C20.9714 4.06324 20.7799 3.60078 20.4389 3.25981C20.0979 2.91883 19.6355 2.72727 19.1533 2.72727ZM7.33507 1.81818H14.6078V5.45455H7.33507V1.81818ZM19.1533 23.6364H2.78962V4.54545H5.51689V7.27273H16.426V4.54545H19.1533V23.6364Z" fill="white"/>
</svg>
