<svg width="20" height="20" viewBox="0 0 20 20" fill="none" xmlns="http://www.w3.org/2000/svg">
<path d="M7.91422 0C10.0132 0 12.0262 0.833817 13.5104 2.31802C14.9946 3.80222 15.8284 5.81524 15.8284 7.91422C15.8284 9.64868 15.2703 11.2524 14.3247 12.5569L19.6281 17.8603C19.8574 18.0863 19.9906 18.392 20.0001 18.7138C20.0095 19.0356 19.8944 19.3486 19.6787 19.5876C19.463 19.8266 19.1634 19.9731 18.8423 19.9967C18.5213 20.0202 18.2035 19.9189 17.9553 19.7139L17.8603 19.6281L12.5569 14.3247C11.2075 15.3047 9.58193 15.8312 7.91422 15.8284C5.81524 15.8284 3.80222 14.9946 2.31802 13.5104C0.833817 12.0262 0 10.0132 0 7.91422C0 5.81524 0.833817 3.80222 2.31802 2.31802C3.80222 0.833817 5.81524 3.12773e-08 7.91422 0ZM7.91422 2.49923C6.47807 2.49923 5.10075 3.06973 4.08524 4.08524C3.06973 5.10075 2.49923 6.47807 2.49923 7.91422C2.49923 9.35036 3.06973 10.7277 4.08524 11.7432C5.10075 12.7587 6.47807 13.3292 7.91422 13.3292C9.35036 13.3292 10.7277 12.7587 11.7432 11.7432C12.7587 10.7277 13.3292 9.35036 13.3292 7.91422C13.3292 6.47807 12.7587 5.10075 11.7432 4.08524C10.7277 3.06973 9.35036 2.49923 7.91422 2.49923Z" fill="white"/>
</svg>
