<svg width="44" height="42" viewBox="0 0 44 42" fill="none" xmlns="http://www.w3.org/2000/svg">
<path d="M36.0625 22.625L33.8531 24.8344L37.8859 28.875H25.125C23.4674 28.875 21.8777 29.5335 20.7056 30.7056C19.5335 31.8777 18.875 33.4674 18.875 35.125C18.875 36.7826 19.5335 38.3723 20.7056 39.5444C21.8777 40.7165 23.4674 41.375 25.125 41.375H28.25V38.25H25.125C24.2962 38.25 23.5013 37.9208 22.9153 37.3347C22.3292 36.7487 22 35.9538 22 35.125C22 34.2962 22.3292 33.5013 22.9153 32.9153C23.5013 32.3292 24.2962 32 25.125 32H37.8859L33.85 36.0422L36.0625 38.25L43.875 30.4375L36.0625 22.625Z" fill="#58ACCD"/>
<path d="M12.625 28.875H3.25L3.24531 5.29063L21.1109 17.6594C21.3722 17.8401 21.6823 17.937 22 17.937C22.3177 17.937 22.6278 17.8401 22.8891 17.6594L40.75 5.29687V19.5H43.875V3.875C43.8742 3.04645 43.5447 2.25208 42.9588 1.66621C42.3729 1.08033 41.5785 0.750827 40.75 0.75H3.25C2.42201 0.749999 1.62786 1.0786 1.04195 1.66363C0.45603 2.24867 0.126242 3.04232 0.125 3.87031V28.875C0.12624 29.7034 0.455878 30.4976 1.04166 31.0833C1.62744 31.6691 2.42158 31.9988 3.25 32H12.625V28.875ZM37.3109 3.875L22 14.475L6.68906 3.875H37.3109Z" fill="#58ACCD"/>
</svg>
