<svg width="51" height="51" viewBox="0 0 51 51" fill="none" xmlns="http://www.w3.org/2000/svg">
<path fill-rule="evenodd" clip-rule="evenodd" d="M16.2134 0.334106H34.9634C35.8098 0.334106 36.591 0.545695 37.3072 0.968872C38.0233 1.39205 38.593 1.96171 39.0162 2.67786C39.4394 3.394 39.6509 4.17525 39.6509 5.02161V13.4211H36.5259V5.02161C36.5259 4.59843 36.3713 4.23222 36.0621 3.92297C35.7528 3.61373 35.3866 3.45911 34.9634 3.45911H16.2134C15.7903 3.45911 15.4241 3.61373 15.1148 3.92297C14.8056 4.23222 14.6509 4.59843 14.6509 5.02161V13.4211H11.5259V5.02161C11.5259 4.17525 11.7375 3.394 12.1607 2.67786C12.5839 1.96171 13.1535 1.39205 13.8697 0.968872C14.5858 0.545695 15.3671 0.334106 16.2134 0.334106ZM11.5259 35.4364V45.6466C11.5259 46.9487 11.9817 48.0555 12.8931 48.9669C13.8046 49.8784 14.9114 50.3341 16.2134 50.3341H34.9634C36.2655 50.3341 37.3723 49.8784 38.2838 48.9669C39.1952 48.0555 39.6509 46.9487 39.6509 45.6466V35.4364H36.5259V45.6466C36.5259 46.0698 36.3713 46.436 36.0621 46.7452C35.7528 47.0545 35.3866 47.2091 34.9634 47.2091H16.2134C15.7903 47.2091 15.4241 47.0545 15.1148 46.7452C14.8056 46.436 14.6509 46.0698 14.6509 45.6466V35.4364H11.5259ZM23.3912 40.3243C24.0097 39.7059 24.7502 39.3966 25.6129 39.3966C26.4755 39.3966 27.2079 39.7059 27.8101 40.3243C28.4123 40.9428 28.7134 41.6753 28.7134 42.5216C28.7134 43.075 28.5751 43.5958 28.2984 44.0841C28.0217 44.5724 27.6392 44.9549 27.1509 45.2316C26.6627 45.5083 26.1418 45.6466 25.5884 45.6466C25.0351 45.6466 24.5142 45.5083 24.0259 45.2316C23.5377 44.9549 23.1552 44.5724 22.8785 44.0841C22.6018 43.5958 22.4634 43.075 22.4634 42.5216C22.4634 41.6753 22.7727 40.9428 23.3912 40.3243ZM22.4634 5.02161H28.7134C29.1366 5.02161 29.5028 5.17623 29.8121 5.48547C30.1213 5.79472 30.2759 6.16093 30.2759 6.58411C30.2759 7.00728 30.1213 7.37349 29.8121 7.68274C29.5028 7.99198 29.1366 8.14661 28.7134 8.14661H22.4634C22.0403 8.14661 21.6741 7.99198 21.3648 7.68274C21.0556 7.37349 20.9009 7.00728 20.9009 6.58411C20.9009 6.16093 21.0556 5.79472 21.3648 5.48547C21.6741 5.17623 22.0403 5.02161 22.4634 5.02161Z" fill="#58ACCD"/>
<path d="M13.4068 26.8271L16.3072 17.2031H19.2427L14.7867 30H12.0357L7.59721 17.2031H10.524L13.4068 26.8271ZM23.0923 25.4912V30H20.4556V17.2031H25.4478C26.4087 17.2031 27.2525 17.3789 27.979 17.7305C28.7115 18.082 29.274 18.583 29.6665 19.2334C30.0591 19.8779 30.2554 20.6133 30.2554 21.4395C30.2554 22.6934 29.8247 23.6836 28.9634 24.4102C28.1079 25.1309 26.9214 25.4912 25.4038 25.4912H23.0923ZM23.0923 23.3555H25.4478C26.1451 23.3555 26.6753 23.1914 27.0386 22.8633C27.4078 22.5352 27.5923 22.0664 27.5923 21.457C27.5923 20.8301 27.4078 20.3232 27.0386 19.9365C26.6695 19.5498 26.1597 19.3506 25.5093 19.3389H23.0923V23.3555ZM42.481 30H39.8443L34.7115 21.5801V30H32.0747V17.2031H34.7115L39.8531 25.6406V17.2031H42.481V30Z" fill="#58ACCD"/>
</svg>
